<?xml version="1.0" encoding="UTF-8" standalone="no"?>
<svg
   width="139.46777"
   height="32.47274"
   viewBox="0 0 139.46777 32.47274"
   fill="none"
   version="1.1"
   id="svg17"
   sodipodi:docname="logo-for-website-2.svg"
   xml:space="preserve"
   inkscape:version="1.3.2 (091e20e, 2023-11-25, custom)"
   xmlns:inkscape="http://www.inkscape.org/namespaces/inkscape"
   xmlns:sodipodi="http://sodipodi.sourceforge.net/DTD/sodipodi-0.dtd"
   xmlns="http://www.w3.org/2000/svg"
   xmlns:svg="http://www.w3.org/2000/svg"><sodipodi:namedview
     id="namedview17"
     pagecolor="#ffffff"
     bordercolor="#000000"
     borderopacity="0.25"
     inkscape:showpageshadow="false"
     inkscape:pageopacity="0.0"
     inkscape:pagecheckerboard="0"
     inkscape:deskcolor="#d1d1d1"
     showguides="false"
     showborder="false"
     inkscape:zoom="6.0085565"
     inkscape:cx="69.650672"
     inkscape:cy="16.310074"
     inkscape:current-layer="svg17"><sodipodi:guide
       position="51.570293,40"
       orientation="0,-1"
       id="guide20"
       inkscape:locked="false" /><sodipodi:guide
       position="48.76718,7.5272579"
       orientation="0,-1"
       id="guide21"
       inkscape:locked="false" /></sodipodi:namedview><defs
     id="defs17" /><rect
     style="fill:#ffffff;stroke-width:4;stroke-miterlimit:11.2;paint-order:fill markers stroke"
     id="rect18"
     width="151"
     height="40"
     x="-5.7661104"
     y="-3.7636287" /><g
     id="text18"
     style="font-size:20px;line-height:0.8;font-family:Amiri;-inkscape-font-specification:Amiri;font-variant-ligatures:no-common-ligatures;text-align:end;letter-spacing:0.5px;word-spacing:0px;text-orientation:upright;text-anchor:end;fill:#b3b3b3;stroke-width:4;stroke-miterlimit:11.2;paint-order:fill markers stroke"
     aria-label="COMPANY&#10;LOGO"
     transform="translate(-5.7661104,-3.7636287)"><path
       style="font-family:Poppins;-inkscape-font-specification:Poppins;text-align:start;text-anchor:start;fill:#000000"
       d="m 44.293926,10.903629 q 0,-2.0400002 0.92,-3.6600002 0.92,-1.64 2.5,-2.56 1.6,-0.92 3.54,-0.92 2.28,0 3.98,1.1 1.7,1.1 2.48,3.12 h -2.18 q -0.58,-1.26 -1.68,-1.94 -1.08,-0.68 -2.6,-0.68 -1.46,0 -2.62,0.68 -1.16,0.68 -1.82,1.94 -0.66,1.24 -0.66,2.9200002 0,1.66 0.66,2.92 0.66,1.24 1.82,1.92 1.16,0.68 2.62,0.68 1.52,0 2.6,-0.66 1.1,-0.68 1.68,-1.94 h 2.18 q -0.78,2 -2.48,3.1 -1.7,1.08 -3.98,1.08 -1.94,0 -3.54,-0.9 -1.58,-0.92 -2.5,-2.54 -0.92,-1.62 -0.92,-3.66 z m 22.939987,7.12 q -1.94,0 -3.54,-0.9 -1.6,-0.92 -2.54,-2.54 -0.92,-1.64 -0.92,-3.68 0,-2.0400002 0.92,-3.6600002 0.94,-1.64 2.54,-2.54 1.6,-0.92 3.54,-0.92 1.96,0 3.56,0.92 1.6,0.9 2.52,2.52 0.92,1.62 0.92,3.6800002 0,2.06 -0.92,3.68 -0.92,1.62 -2.52,2.54 -1.6,0.9 -3.56,0.9 z m 0,-1.58 q 1.46,0 2.62,-0.68 1.18,-0.68 1.84,-1.94 0.68,-1.26 0.68,-2.92 0,-1.6800002 -0.68,-2.9200002 -0.66,-1.26 -1.82,-1.94 -1.16,-0.68 -2.64,-0.68 -1.48,0 -2.64,0.68 -1.16,0.68 -1.84,1.94 -0.66,1.24 -0.66,2.9200002 0,1.66 0.66,2.92 0.68,1.26 1.84,1.94 1.18,0.68 2.64,0.68 z M 91.273899,4.0436288 V 17.883629 h -1.82 V 7.5636288 l -4.6,10.3200002 h -1.28 l -4.62,-10.3400002 V 17.883629 h -1.82 V 4.0436288 h 1.96 l 5.12,11.4400002 5.12,-11.4400002 z m 12.900001,3.98 q 0,1.74 -1.2,2.9000002 -1.18,1.14 -3.62,1.14 h -2.68 v 5.82 h -1.82 V 3.9436288 h 4.5 q 2.36,0 3.58,1.14 1.24,1.14 1.24,2.94 z m -4.82,2.5400002 q 1.52,0 2.24,-0.6600002 0.72,-0.66 0.72,-1.88 0,-2.58 -2.96,-2.58 h -2.68 v 5.1200002 z m 15.82001,4.22 h -6.08 l -1.12,3.1 h -1.92 l 5.04,-13.8600002 h 2.1 l 5.02,13.8600002 h -1.92 z m -0.52,-1.48 -2.52,-7.0400002 -2.52,7.0400002 z m 17.22,4.58 h -1.82 l -7.32,-11.1000002 V 17.883629 h -1.82 V 3.9236288 h 1.82 l 7.32,11.0800002 V 3.9236288 h 1.82 z m 13.35998,-13.9400002 -4.54,8.6800002 v 5.26 h -1.82 v -5.26 l -4.56,-8.6800002 h 2.02 l 3.44,7.0600002 3.44,-7.0600002 z"
       id="path23" /><path
       style="font-weight:600;font-family:Poppins;-inkscape-font-specification:'Poppins Semi-Bold';text-align:start;text-anchor:start;fill:#000000"
       d="m 47.613926,33.876371 h 4.6 v 2.22 h -7.4 v -13.96 h 2.8 z m 13.359992,2.36 q -1.96,0 -3.6,-0.92 -1.64,-0.92 -2.6,-2.54 -0.96,-1.64 -0.96,-3.7 0,-2.04 0.96,-3.66 0.96,-1.64 2.6,-2.56 1.64,-0.92 3.6,-0.92 1.98,0 3.6,0.92 1.64,0.92 2.58,2.56 0.96,1.62 0.96,3.66 0,2.06 -0.96,3.7 -0.94,1.62 -2.58,2.54 -1.64,0.92 -3.6,0.92 z m 0,-2.5 q 1.26,0 2.22,-0.56 0.96,-0.58 1.5,-1.64 0.54,-1.06 0.54,-2.46 0,-1.4 -0.54,-2.44 -0.54,-1.06 -1.5,-1.62 -0.96,-0.56 -2.22,-0.56 -1.26,0 -2.24,0.56 -0.96,0.56 -1.5,1.62 -0.54,1.04 -0.54,2.44 0,1.4 0.54,2.46 0.54,1.06 1.5,1.64 0.98,0.56 2.24,0.56 z m 19.439997,-7.4 q -0.48,-0.88 -1.32,-1.34 -0.84,-0.46 -1.96,-0.46 -1.24,0 -2.2,0.56 -0.96,0.56 -1.5,1.6 -0.54,1.04 -0.54,2.4 0,1.4 0.54,2.44 0.56,1.04 1.54,1.6 0.98,0.56 2.28,0.56 1.6,0 2.62,-0.84 1.02,-0.86 1.34,-2.38 h -4.8 v -2.14 h 7.56 v 2.44 q -0.28,1.46 -1.2,2.7 -0.92,1.24 -2.38,2 -1.44,0.74 -3.24,0.74 -2.02,0 -3.66,-0.9 -1.62,-0.92 -2.56,-2.54 -0.92,-1.62 -0.92,-3.68 0,-2.06 0.92,-3.68 0.94,-1.64 2.56,-2.54 1.64,-0.92 3.64,-0.92 2.36,0 4.1,1.16 1.74,1.14 2.4,3.22 z m 12.619993,9.9 q -1.96,0 -3.6,-0.92 -1.64,-0.92 -2.6,-2.54 -0.96,-1.64 -0.96,-3.7 0,-2.04 0.96,-3.66 0.96,-1.64 2.6,-2.56 1.64,-0.92 3.6,-0.92 1.98,0 3.6,0.92 1.64,0.92 2.58,2.56 0.960002,1.62 0.960002,3.66 0,2.06 -0.960002,3.7 -0.94,1.62 -2.58,2.54 -1.64,0.92 -3.6,0.92 z m 0,-2.5 q 1.26,0 2.22,-0.56 0.96,-0.58 1.5,-1.64 0.54,-1.06 0.54,-2.46 0,-1.4 -0.54,-2.44 -0.54,-1.06 -1.5,-1.62 -0.96,-0.56 -2.22,-0.56 -1.26,0 -2.24,0.56 -0.96,0.56 -1.5,1.62 -0.54,1.04 -0.54,2.44 0,1.4 0.54,2.46 0.54,1.06 1.5,1.64 0.98,0.56 2.24,0.56 z"
       id="path24" /></g><path
     id="rect20"
     style="fill:#ffb600;stroke-width:4.00001;stroke-miterlimit:11.2;paint-order:fill markers stroke"
     d="M 4.9999996,3e-7 H 29.326374 c 2.77,0 5,2.23 5,5 V 27.45475 c 0,2.77 -2.23,5 -5,5 H 4.9999996 C 2.23,32.45475 0,30.22475 0,27.45475 V 5.0000003 c 0,-2.77 2.23,-5 4.9999996,-5 z" /><g
     style="fill:none;stroke:currentColor;stroke-width:1.66407;stroke-linecap:round;stroke-linejoin:round"
     id="g20"
     transform="matrix(1.2006631,0,0,1.2030872,2.7552298,1.188856)"><path
       style="color:#000000;fill:#000000;stroke:none;stroke-linecap:butt;stroke-linejoin:miter;-inkscape-stroke:none"
       d="M 5,1.1679687 A 0.83211821,0.83211821 0 0 0 4.4121094,2.5878906 L 9.9921875,8.1679688 H 5 A 0.83211821,0.83211821 0 0 0 4.1679687,9 v 7 a 0.83203501,0.83203501 0 0 0 0.2441407,0.587891 l 6.9999996,7 A 0.83211821,0.83211821 0 0 0 12.832031,23 V 16.832031 H 19 a 0.83211821,0.83211821 0 0 0 0.587891,-1.419922 L 14.007813,9.8320313 H 19 A 0.83211821,0.83211821 0 0 0 19.832031,9 V 2 A 0.83211821,0.83211821 0 0 0 19,1.1679687 Z M 7.0078125,2.8320313 H 18.167969 V 8.1679688 H 12.34375 Z m -1.1757813,7 H 11.65625 l 5.335937,5.3359377 H 12 5.8320312 Z m 1.1757813,6.9999997 h 4.1601565 v 4.160156 z"
       id="path1-5" /></g></svg>
