<?xml version="1.0" encoding="UTF-8" standalone="no"?>
<!-- Created with Inkscape (http://www.inkscape.org/) -->

<svg
   width="284.62582mm"
   height="67.862518mm"
   viewBox="0 0 1075.7512 256.48827"
   version="1.1"
   id="svg1"
   inkscape:version="1.3.2 (091e20e, 2023-11-25, custom)"
   xml:space="preserve"
   sodipodi:docname="logo-coderelit.svg"
   xmlns:inkscape="http://www.inkscape.org/namespaces/inkscape"
   xmlns:sodipodi="http://sodipodi.sourceforge.net/DTD/sodipodi-0.dtd"
   xmlns="http://www.w3.org/2000/svg"
   xmlns:svg="http://www.w3.org/2000/svg"><sodipodi:namedview
     id="namedview1"
     pagecolor="#ffffff"
     bordercolor="#000000"
     borderopacity="0.25"
     inkscape:showpageshadow="false"
     inkscape:pageopacity="0.0"
     inkscape:pagecheckerboard="0"
     inkscape:deskcolor="#d1d1d1"
     inkscape:document-units="mm"
     showguides="false"
     inkscape:zoom="0.3625"
     inkscape:cx="580.68965"
     inkscape:cy="267.58621"
     inkscape:current-layer="layer1"><sodipodi:guide
       position="1739.6965,803.45397"
       orientation="0,-1"
       id="guide2"
       inkscape:locked="false" /><sodipodi:guide
       position="1635.8157,601.85437"
       orientation="0,-1"
       id="guide3"
       inkscape:locked="false" /><sodipodi:guide
       position="74.882165,983.90891"
       orientation="0,-1"
       id="guide54"
       inkscape:locked="false" /><sodipodi:guide
       position="107.11846,1240.3972"
       orientation="0,-1"
       id="guide55"
       inkscape:locked="false" /><inkscape:page
       x="0"
       y="0"
       width="1075.7512"
       height="256.48828"
       id="page55"
       margin="0"
       bleed="0"
       inkscape:export-filename="logo-coderelit-inverse.png"
       inkscape:export-xdpi="300"
       inkscape:export-ydpi="300" /></sodipodi:namedview><defs
     id="defs1" /><g
     inkscape:label="Layer 1"
     inkscape:groupmode="layer"
     id="layer1"
     transform="translate(4736.111,-364.44359)"><g
       id="g56"
       transform="translate(-77.150245,-505.45373)"><g
         id="g53"><path
           style="font-weight:bold;font-size:280px;line-height:0.8;font-family:'Myriad Pro';-inkscape-font-specification:'Myriad Pro Bold';font-variant-ligatures:no-common-ligatures;letter-spacing:0.5px;word-spacing:0px;text-orientation:upright;fill:#ffffff;stroke-width:4;stroke-miterlimit:11.2;paint-order:fill markers stroke"
           d="m -3731.2285,939.34175 49.84,136.92005 h 42.56 l 50.96,-136.92005 h -44.8 l -17.64,63.55995 c -3.08,11.76 -5.32,22.12 -7.56,33.3201 h -0.84 c -2.24,-10.9201 -4.48,-21.5601 -7.84,-33.3201 l -18.48,-63.55995 z"
           id="path45" /><path
           style="font-weight:bold;font-size:280px;line-height:0.8;font-family:'Myriad Pro';-inkscape-font-specification:'Myriad Pro Bold';font-variant-ligatures:no-common-ligatures;letter-spacing:0.5px;word-spacing:0px;text-orientation:upright;fill:#ffffff;stroke-width:4;stroke-miterlimit:11.2;paint-order:fill markers stroke"
           d="m -3742.3684,1021.3817 c 0.56,-3.0799 1.4,-9.5199 1.4,-16.7999 0,-33.88005 -16.8,-68.32005 -61.04,-68.32005 -47.6,0 -69.16,38.36 -69.16,73.08005 0,42.84 26.6,69.72 73.08,69.72 18.48,0 35.56,-2.8 49.56,-8.68 l -5.6,-28.84 c -11.48,3.92 -23.24,5.88 -37.8,5.88 -19.88,0 -37.52,-8.4 -38.64,-26.04 z m -88.48,-29.11995 c 1.12,-11.2 8.4,-27.72 26.32,-27.72 19.6,0 24.08,17.36 24.08,27.72 z"
           id="path46" /><path
           style="font-weight:bold;font-size:280px;line-height:0.8;font-family:'Myriad Pro';-inkscape-font-specification:'Myriad Pro Bold';font-variant-ligatures:no-common-ligatures;letter-spacing:0.5px;word-spacing:0px;text-orientation:upright;fill:#ffffff;stroke-width:4;stroke-miterlimit:11.2;paint-order:fill markers stroke"
           d="m -3940.5485,877.46178 v 73.91997 h -0.56 c -6.16,-9.24 -19.04,-15.4 -36.12,-15.4 -32.76,0 -61.6,26.88 -61.32,73.07995 0,42.56 26.04,70.28 58.52,70.28 17.64,0 34.44,-7.8399 42.84,-22.96 h 0.84 l 1.68,19.88 h 37.8 c -0.56,-9.24 -1.12,-25.48 -1.12,-40.88 V 877.46178 Z m 0,137.75992 c 0,3.36 -0.28,6.72 -0.84,9.8 -2.52,12.04 -12.6,20.4401 -24.92,20.4401 -17.64,0 -29.12,-14.56 -29.12,-37.8001 0,-21.55995 9.8,-38.91995 29.4,-38.91995 13.16,0 22.4,9.52 24.92,20.72 0.56,2.52 0.56,5.6 0.56,7.84 z"
           id="path47" /><path
           style="font-weight:bold;font-size:280px;line-height:0.8;font-family:'Myriad Pro';-inkscape-font-specification:'Myriad Pro Bold';font-variant-ligatures:no-common-ligatures;letter-spacing:0.5px;word-spacing:0px;text-orientation:upright;fill:#ffffff;stroke-width:4;stroke-miterlimit:11.2;paint-order:fill markers stroke"
           d="m -4126.6889,913.86175 v 25.48 h -18.2 v 31.36 h 18.2 v 56.00005 c 0,19.3199 3.92,32.48 11.76,40.5999 7,7 18.48,11.76 32.2,11.76 11.76,0 22.12,-1.68 27.44,-3.64 l -0.28,-32.2 c -3.92,0.84 -6.72,1.12 -12.6,1.12 -12.6,0 -16.8,-7.56 -16.8,-24.08 v -49.55995 h 30.52 v -31.36 h -30.52 v -36.96 z"
           id="path48" /><path
           style="font-weight:bold;font-size:280px;line-height:0.8;font-family:'Myriad Pro';-inkscape-font-specification:'Myriad Pro Bold';font-variant-ligatures:no-common-ligatures;letter-spacing:0.5px;word-spacing:0px;text-orientation:upright;fill:#4f46e5;fill-opacity:1;stroke-width:4;stroke-miterlimit:11.2;paint-order:fill markers stroke"
           d="m -4188.229,879.98178 c -13.72,0 -22.68,9.24 -22.68,21.27997 0,11.76 8.68,21.28 22.12,21.28 14.28,0 22.96,-9.52 22.96,-21.28 -0.28,-12.03997 -8.68,-21.27997 -22.4,-21.27997 z"
           id="path49" /><path
           style="font-weight:bold;font-size:280px;line-height:0.8;font-family:'Myriad Pro';-inkscape-font-specification:'Myriad Pro Bold';font-variant-ligatures:no-common-ligatures;letter-spacing:0.5px;word-spacing:0px;text-orientation:upright;fill:#ffffff;stroke-width:4;stroke-miterlimit:11.2;paint-order:fill markers stroke"
           d="M -4167.229,1076.2617 V 939.34175 h -42.56 v 136.91995 z"
           id="path50" /><path
           style="font-weight:bold;font-size:280px;line-height:0.8;font-family:'Myriad Pro';-inkscape-font-specification:'Myriad Pro Bold';font-variant-ligatures:no-common-ligatures;letter-spacing:0.5px;word-spacing:0px;text-orientation:upright;fill:#ffffff;stroke-width:4;stroke-miterlimit:11.2;paint-order:fill markers stroke"
           d="m -4287.2889,1076.2617 h 42.56 V 877.46178 h -42.56 z"
           id="path51" /><path
           style="font-weight:bold;font-size:280px;line-height:0.8;font-family:'Myriad Pro';-inkscape-font-specification:'Myriad Pro Bold';font-variant-ligatures:no-common-ligatures;letter-spacing:0.5px;word-spacing:0px;text-orientation:upright;fill:#ffffff;stroke-width:4;stroke-miterlimit:11.2;paint-order:fill markers stroke"
           d="m -4314.6689,1021.3817 c 0.56,-3.0799 1.4,-9.5199 1.4,-16.7999 0,-33.88005 -16.8,-68.32005 -61.04,-68.32005 -47.6,0 -69.16,38.36 -69.16,73.08005 0,42.84 26.6,69.72 73.08,69.72 18.48,0 35.56,-2.8 49.56,-8.68 l -5.6,-28.84 c -11.48,3.92 -23.24,5.88 -37.8,5.88 -19.88,0 -37.52,-8.4 -38.64,-26.04 z m -88.48,-29.11995 c 1.12,-11.2 8.4,-27.72 26.32,-27.72 19.6,0 24.08,17.36 24.08,27.72 z"
           id="path52" /></g><path
         id="path53"
         style="font-weight:bold;font-size:280px;line-height:1.5;font-family:'Myriad Pro';-inkscape-font-specification:'Myriad Pro Bold';font-variant-ligatures:no-common-ligatures;text-align:justify;letter-spacing:0px;word-spacing:0px;text-orientation:upright;fill:#4f46e5;fill-opacity:1;stroke-width:20;stroke-linecap:round;stroke-miterlimit:11.2;stroke-opacity:0.976471;paint-order:fill markers stroke"
         d="m -4622.0655,869.89733 -14.7754,35.27147 h 33.6075 l -44.3438,92.1836 h 35.3652 l -42.0898,129.0332 96.9238,-162.834 h -34.3906 l 29.0801,-58.3828 h 20.1367 2.7734 c 0,0 5.674,0 9.1875,0 19.6,0 31.3594,9.834 31.3594,28.5781 0,18.1296 -12.5988,29.8067 -33.8789,29.8067 h -6.6426 l -19.289,33.8008 h 21.7304 c 17.6399,0.3072 25.7601,7.0666 31.0801,33.1855 5.3201,25.5044 10.0808,42.0985 12.8809,48.2441 h 43.6797 c -3.6399,-7.9893 -9.2392,-35.0307 -15.1192,-58.6914 -4.7601,-19.0514 -12.0411,-32.5718 -25.2012,-38.4101 v -0.9218 c 16.24,-6.453 33.3204,-24.5823 33.3204,-50.7012 0,-19.0515 -6.1607,-33.8018 -17.6407,-43.6348 -13.44,-11.67667 -33.0382,-16.28416 -63.2519,-16.40427 z" /></g></g></svg>
